<svg width="350" height="340" xmlns="http://www.w3.org/2000/svg" xmlns:xlink="http://www.w3.org/1999/xlink" overflow="hidden"><defs><clipPath id="clip0"><rect x="3118" y="1281" width="350" height="340"/></clipPath></defs><g clip-path="url(#clip0)" transform="translate(-3118 -1281)"><path d="M3284.5 1500.5C3284.04 1499.36 3283.54 1498.23 3283.12 1497.07 3282.39 1495.02 3282.6 1492.42 3281.06 1490.89 3276.18 1486.02 3282.39 1491.89 3275.55 1486.77 3274.78 1486.18 3274.33 1485.19 3273.49 1484.71 3272.67 1484.24 3271.63 1484.32 3270.74 1484.02 3269.56 1483.63 3268.42 1483.16 3267.3 1482.65 3261.2 1479.88 3265.38 1481.03 3259.73 1479.9 3259.04 1479.44 3258.45 1478.78 3257.66 1478.53 3249.27 1475.88 3248.25 1475.98 3241.14 1475.09 3237.87 1472.91 3240.37 1474.24 3236.33 1473.03 3234.94 1472.62 3232.2 1471.66 3232.2 1471.66 3226.61 1466.09 3233.85 1472.6 3227.38 1468.91 3226.53 1468.43 3226.14 1467.37 3225.32 1466.85 3221.93 1464.7 3220.78 1464.43 3217.75 1463.42 3215.91 1461.59 3213.68 1460.08 3212.24 1457.93 3211.32 1456.55 3210.44 1455.16 3209.49 1453.81 3208.83 1452.87 3208.06 1452.01 3207.42 1451.06 3206.68 1449.95 3206.08 1448.75 3205.36 1447.63 3204.47 1446.23 3202.6 1443.51 3202.6 1443.51 3202.38 1442.13 3202.28 1440.73 3201.92 1439.39 3201.59 1438.2 3200.59 1437.18 3200.54 1435.95 3200.35 1430.92 3200.86 1425.87 3201.23 1420.85 3201.31 1419.68 3201.3 1418.4 3201.92 1417.41 3202.52 1416.44 3203.75 1416.04 3204.67 1415.35 3206.18 1409.33 3204.03 1415.3 3207.42 1411.23 3208.08 1410.45 3208.14 1409.27 3208.8 1408.49 3209.33 1407.85 3210.25 1407.66 3210.86 1407.11 3212.32 1405.82 3213.25 1403.86 3214.99 1402.99 3216.96 1402.01 3217.78 1401.44 3219.81 1400.93L3225.32 1399.56 3226.69 1397.5" stroke="#C00000" stroke-width="4.58333" stroke-miterlimit="8" fill="none" fill-rule="evenodd"/><path d="M3212.15 1409.5C3211 1408.81 3209.95 1407.93 3208.72 1407.44 3207.63 1407.01 3206.31 1407.31 3205.28 1406.75 3203.72 1405.9 3202.48 1404.53 3201.17 1403.32 3199.5 1401.78 3197.53 1400.45 3196.36 1398.51 3194.3 1395.07 3194 1394.44 3191.56 1390.95 3190.9 1390.01 3190.19 1389.12 3189.5 1388.2 3189.73 1385.23 3189.42 1382.16 3190.19 1379.27 3190.4 1378.48 3191.57 1378.38 3192.25 1377.9 3196.4 1374.93 3193.47 1376.45 3198.42 1374.47 3198.88 1373.78 3199.06 1372.77 3199.79 1372.4 3201.04 1371.78 3202.53 1371.91 3203.91 1371.72 3205.74 1371.46 3207.58 1371.29 3209.4 1371.03 3210.88 1370.82 3213.94 1370.47 3215.58 1369.66 3219.5 1367.69 3217.11 1367.03 3222.44 1363.47L3224.5 1362.1C3224.27 1358.67 3224.38 1355.19 3223.81 1351.8 3223.68 1350.98 3223 1350.35 3222.44 1349.73 3220.7 1347.82 3219.1 1345.68 3216.95 1344.24L3210.77 1340.12C3209.4 1339.2 3207.82 1338.54 3206.66 1337.37 3205.97 1336.68 3205.36 1335.91 3204.6 1335.31 3203.3 1334.3 3200.48 1332.56 3200.48 1332.56L3199.79 1330.5" stroke="#C00000" stroke-width="4.58333" stroke-miterlimit="8" fill="none" fill-rule="evenodd"/><path d="M3262.67 1437.5C3262.21 1435.19 3261.79 1432.88 3261.29 1430.58 3261.1 1429.65 3261.27 1428.48 3260.6 1427.81 3259.51 1426.71 3257.82 1426.47 3256.47 1425.73 3248.37 1421.29 3257.95 1424.82 3241.3 1420.88 3238.64 1419.55 3232.51 1415.56 3229.58 1419.5 3228.47 1420.98 3239.89 1422.26 3239.92 1422.27 3246.11 1425.38 3244.7 1425.23 3256.47 1422.96 3258.09 1422.65 3260.6 1420.19 3260.6 1420.19 3261.98 1417.88 3262.51 1414.76 3264.74 1413.27 3267.24 1411.6 3266.44 1412.63 3267.5 1410.5" stroke="#C00000" stroke-width="4.58333" stroke-miterlimit="8" fill="none" fill-rule="evenodd"/><path d="M3251.84 1340.5C3251.28 1357.34 3254.96 1355.87 3249.77 1363.08 3246.31 1367.88 3249.37 1364.06 3244.25 1367.87 3243.47 1368.45 3243.06 1369.49 3242.18 1369.92 3241.13 1370.44 3237.56 1370.61 3238.73 1370.61 3240.82 1370.61 3242.87 1370.15 3244.94 1369.92 3245.63 1369.46 3246.18 1368.55 3247.01 1368.55 3252.19 1368.55 3251.73 1370.18 3254.6 1373.34 3255.69 1374.54 3256.9 1375.62 3258.05 1376.76 3258.28 1377.45 3258.17 1378.37 3258.74 1378.82 3259.48 1379.4 3261.5 1379.5 3261.5 1379.5" stroke="#C00000" stroke-width="4.58333" stroke-miterlimit="8" fill="none" fill-rule="evenodd"/><path d="M3212.5 1458.5C3211.35 1457.39 3210.39 1456.07 3209.06 1455.17 3208.05 1454.48 3206.61 1454.55 3205.62 1453.83 3198.7 1448.8 3210.82 1452.93 3198.06 1449.83L3141 1450.5C3120.52 1450.94 3165.08 1452.92 3125.19 1450.5L3124.5 1448.5" stroke="#C00000" stroke-width="4.58333" stroke-miterlimit="8" fill="none" fill-rule="evenodd"/><path d="M3141.5 1467.5C3141.73 1465.72 3141.5 1463.83 3142.19 1462.17 3142.49 1461.42 3143.66 1461.4 3144.24 1460.83 3147.87 1457.31 3142.62 1460.15 3148.36 1456.17 3148.95 1455.76 3149.73 1455.72 3150.41 1455.5 3153.63 1453.16 3152.94 1453.22 3157.27 1452.17 3157.43 1452.13 3164.3 1451.08 3164.81 1450.83 3165.27 1450.61 3165.27 1449.94 3165.5 1449.5" stroke="#C00000" stroke-width="4.58333" stroke-miterlimit="8" fill="none" fill-rule="evenodd"/><path d="M3161.55 1414.5C3160.41 1413.58 3159.11 1412.83 3158.13 1411.73 3154.49 1407.64 3156.13 1408.86 3154.71 1405.5 3154.31 1404.55 3153.8 1403.65 3153.34 1402.73 3152.52 1396.91 3151.69 1394.19 3154.03 1387.5 3154.36 1386.53 3155.87 1386.62 3156.76 1386.12 3161.61 1383.39 3158.48 1384.61 3162.24 1383.35 3164.29 1383.81 3166.51 1385.68 3168.39 1384.73 3169.7 1384.07 3166.07 1382.93 3164.97 1381.96 3164.24 1381.32 3163.6 1380.58 3162.92 1379.88 3162.69 1378.96 3162.57 1378.01 3162.24 1377.12 3161.88 1376.15 3160.87 1375.38 3160.87 1374.35 3160.87 1371.31 3161.68 1368.33 3162.24 1365.35 3162.37 1364.63 3162.41 1363.79 3162.92 1363.27 3163.43 1362.75 3164.32 1362.88 3164.97 1362.58 3166.83 1361.72 3168.68 1360.83 3170.45 1359.81 3171.87 1358.98 3173.11 1357.84 3174.55 1357.04 3175.63 1356.44 3176.9 1356.25 3177.97 1355.65 3179.42 1354.86 3180.64 1353.69 3182.08 1352.88 3182.71 1352.53 3183.46 1352.46 3184.13 1352.19 3184.6 1352 3185.04 1351.73 3185.5 1351.5" stroke="#C00000" stroke-width="4.58333" stroke-miterlimit="8" fill="none" fill-rule="evenodd"/><path d="M3281.5 1564.5C3280.35 1563.81 3279.13 1563.24 3278.06 1562.44 3277.28 1561.86 3276.85 1560.85 3276 1560.38 3272.42 1558.4 3267.27 1558.62 3263.61 1558.32 3261.55 1557.4 3259.5 1556.43 3257.42 1555.57 3256.75 1555.29 3255.97 1555.27 3255.35 1554.88 3253.42 1553.65 3251.76 1552.03 3249.85 1550.76 3246.94 1548.82 3243.77 1547.28 3240.91 1545.26 3226.94 1535.41 3249.85 1549.52 3234.71 1540.45 3230.54 1535.24 3233 1538.05 3227.15 1532.21L3223.71 1528.77C3222.39 1524.83 3224.01 1528.39 3220.27 1524.65 3215.2 1519.59 3222.24 1523.81 3213.39 1519.15 3207.14 1515.87 3200.63 1512.39 3193.43 1511.59 3184.27 1510.58 3189.31 1511.06 3178.3 1510.22 3168.43 1510.45 3158.54 1510.07 3148.71 1510.9 3147.57 1511 3146.96 1512.41 3145.96 1512.97 3144.88 1513.57 3143.65 1513.84 3142.52 1514.34 3141.58 1514.76 3140.68 1515.26 3139.77 1515.71 3138.62 1515.49 3137.42 1515.44 3136.33 1515.03 3133.33 1513.91 3132.42 1510.56 3130.82 1508.16 3130.19 1507.2 3129.42 1506.35 3128.76 1505.41 3126.31 1501.92 3126.01 1501.29 3123.94 1497.85 3122.23 1487.6 3122.46 1490.65 3123.94 1472.43 3124.06 1470.98 3124.9 1469.69 3125.32 1468.3 3126.72 1463.63 3125.07 1467.41 3127.38 1462.81 3127.06 1461.84 3126.06 1457.64 3124.63 1456.62 3123.62 1455.91 3122.34 1455.71 3121.19 1455.25 3120.43 1452.97 3120.5 1453.91 3120.5 1452.5" stroke="#C00000" stroke-width="4.58333" stroke-miterlimit="8" fill="none" fill-rule="evenodd"/><path d="M3140.5 1516.9C3139.35 1516.44 3138.27 1515.36 3137.04 1515.52 3136.07 1515.64 3134.06 1518.94 3133.58 1519.67L3132.19 1527.97C3131.43 1532.57 3131.5 1530.71 3131.5 1533.5" stroke="#C00000" stroke-width="4.58333" stroke-miterlimit="8" fill="none" fill-rule="evenodd"/><path d="M3284.5 1538.5C3283.37 1537.35 3282.29 1536.13 3281.1 1535.04 3277.98 1532.18 3277.16 1532.02 3273.62 1529.5 3272.69 1528.84 3271.89 1527.98 3270.9 1527.42 3269.84 1526.82 3268.64 1526.5 3267.5 1526.04 3266.37 1524.88 3265.39 1523.56 3264.11 1522.58 3263.53 1522.14 3262.71 1522.21 3262.07 1521.88 3261.07 1521.38 3257.92 1518.89 3257.31 1518.42 3256.63 1517.27 3255.72 1516.23 3255.27 1514.96 3254.14 1511.81 3254.59 1504.85 3254.59 1502.5" stroke="#C00000" stroke-width="4.58333" stroke-miterlimit="8" fill="none" fill-rule="evenodd"/><path d="M3279 1567.5C3279.41 1568.65 3279.93 1569.76 3280.25 1570.95 3280.55 1572.07 3280.64 1573.25 3280.87 1574.39 3281.06 1575.32 3281.29 1576.23 3281.5 1577.15 3280.87 1578.76 3280.58 1580.57 3279.62 1581.97 3279.23 1582.55 3278.35 1582.38 3277.74 1582.66 3276.89 1583.07 3276.11 1583.68 3275.24 1584.04 3274.44 1584.37 3273.54 1584.4 3272.74 1584.73 3271.86 1585.09 3271.12 1585.78 3270.23 1586.11 3269.22 1586.48 3268.12 1586.46 3267.1 1586.8 3266.03 1587.15 3265.04 1587.78 3263.97 1588.18 3262.11 1588.86 3259.56 1589.21 3257.71 1589.55 3256.46 1590.48 3254.78 1591.83 3253.33 1592.31 3252.12 1592.71 3250.82 1592.75 3249.58 1593 3248.53 1593.21 3247.5 1593.51 3246.45 1593.69 3244.78 1593.97 3243.09 1594.04 3241.44 1594.38 3239.75 1594.73 3238.1 1595.3 3236.43 1595.76 3235.18 1597.14 3232.95 1597.97 3232.67 1599.89 3232.04 1604.23 3233.27 1608.66 3233.93 1612.99 3234.11 1614.21 3234.46 1615.48 3235.18 1616.43 3235.6 1616.99 3236.49 1616.75 3237.06 1617.12 3237.56 1617.46 3237.89 1618.04 3238.31 1618.5" stroke="#C00000" stroke-width="4.58333" stroke-miterlimit="8" fill="none" fill-rule="evenodd"/><path d="M3142.5 1554.5C3149.99 1557.49 3147.35 1556.57 3160.47 1560.02 3164.36 1561.04 3168.32 1561.81 3172.22 1562.78 3173.85 1563.19 3175.4 1563.9 3177.06 1564.16 3179.8 1564.59 3182.59 1564.62 3185.35 1564.85 3194.43 1568.73 3186.66 1566.05 3201.25 1567.61 3204.04 1567.91 3209.54 1568.99 3209.54 1568.99 3211.11 1573.67 3208.9 1568.09 3213 1573.82 3213.42 1574.41 3213.46 1575.2 3213.69 1575.89 3213.26 1580.63 3212.12 1588.65 3213.69 1593.14 3214.34 1594.99 3216.09 1596.41 3217.84 1597.28 3219.22 1597.97 3220.53 1598.83 3221.99 1599.35 3223.09 1599.75 3224.29 1599.79 3225.44 1600.04 3226.37 1600.25 3227.29 1600.47 3228.21 1600.73 3228.91 1600.93 3229.55 1601.36 3230.28 1601.42 3232.35 1601.6 3234.43 1601.42 3236.5 1601.42" stroke="#C00000" stroke-width="4.58333" stroke-miterlimit="8" fill="none" fill-rule="evenodd"/><path d="M3213.48 1519.5C3212.23 1518.6 3210.63 1518 3209.74 1516.79 3209.04 1515.84 3209.4 1514.5 3208.99 1513.41 3208.64 1512.46 3208 1511.61 3207.5 1510.71 3207.75 1508.9 3207.39 1506.94 3208.25 1505.29 3212.96 1496.23 3215.22 1502.36 3211.98 1496.5" stroke="#C00000" stroke-width="4.58333" stroke-miterlimit="8" fill="none" fill-rule="evenodd"/><path d="M3182.5 1307.53C3187.97 1306.44 3188.67 1306.47 3195.58 1303.4 3196.62 1302.94 3197.41 1302.02 3198.33 1301.34 3203.37 1301.57 3208.45 1301.47 3213.47 1302.02 3214.7 1302.16 3215.75 1302.97 3216.91 1303.4 3224.52 1306.26 3209.3 1299.94 3223.1 1306.84 3224.86 1307.72 3226.77 1308.22 3228.61 1308.91 3229.53 1310.06 3230.5 1311.16 3231.36 1312.35 3232.33 1313.69 3233.05 1315.21 3234.11 1316.48 3235.36 1317.98 3236.93 1319.18 3238.24 1320.61 3241.05 1323.68 3241.13 1324.92 3244.44 1326.81 3245.07 1327.17 3245.81 1327.27 3246.5 1327.5 3246.27 1326.35 3246.46 1325.03 3245.81 1324.06 3245.41 1323.45 3244.2 1323.94 3243.75 1323.37 3243.16 1322.63 3243.61 1321.38 3243.06 1320.61 3242.17 1319.37 3239.44 1318.24 3238.24 1317.17 3231.17 1310.88 3236.73 1314.79 3232.05 1311.66 3231.82 1310.98 3231.55 1310.3 3231.36 1309.6 3230.86 1307.77 3229.98 1304.09 3229.98 1304.09 3231.25 1296.47 3229.51 1303.01 3232.74 1297.21 3235.17 1292.82 3233.05 1291.54 3239.62 1288.25 3245.33 1285.4 3243.07 1285.5 3245.81 1285.5" stroke="#C00000" stroke-width="4.58333" stroke-miterlimit="8" fill="none" fill-rule="evenodd"/><path d="M3304.69 1397.88C3305.08 1399.05 3305.51 1400.21 3305.85 1401.4 3306.45 1403.49 3306.09 1406.07 3307.52 1407.7 3312.09 1412.87 3306.26 1406.62 3312.76 1412.16 3313.5 1412.79 3313.88 1413.81 3314.69 1414.35 3315.48 1414.86 3316.52 1414.85 3317.39 1415.2 3318.54 1415.66 3319.65 1416.21 3320.74 1416.79 3326.65 1419.93 3322.55 1418.52 3328.12 1420 3328.77 1420.5 3329.32 1421.2 3330.09 1421.5 3338.29 1424.66 3339.32 1424.63 3346.34 1425.95 3349.47 1428.33 3347.07 1426.85 3351.02 1428.31 3352.38 1428.81 3355.05 1429.94 3355.05 1429.94 3360.28 1435.85 3353.46 1428.89 3359.68 1432.98 3360.5 1433.51 3360.83 1434.59 3361.62 1435.17 3364.86 1437.52 3365.99 1437.87 3368.95 1439.06 3370.67 1441.01 3372.8 1442.65 3374.1 1444.89 3374.93 1446.32 3375.73 1447.77 3376.59 1449.18 3377.19 1450.16 3377.9 1451.06 3378.48 1452.05 3379.15 1453.21 3379.68 1454.44 3380.32 1455.61 3381.12 1457.06 3382.81 1459.9 3382.81 1459.9 3382.96 1461.29 3382.96 1462.7 3383.24 1464.06 3383.49 1465.27 3384.43 1466.34 3384.4 1467.58 3384.28 1472.62 3383.46 1477.63 3382.78 1482.63 3382.62 1483.79 3382.56 1485.07 3381.88 1486.02 3381.21 1486.95 3379.97 1487.28 3379.01 1487.91 3377.13 1493.84 3379.64 1488 3376.01 1491.85 3375.3 1492.6 3375.17 1493.77 3374.47 1494.51 3373.9 1495.11 3372.97 1495.25 3372.32 1495.76 3370.79 1496.96 3369.74 1498.86 3367.95 1499.62 3365.92 1500.48 3365.07 1501 3363.02 1501.38L3357.44 1502.41 3355.94 1504.38" stroke="#C00000" stroke-width="4.58333" stroke-miterlimit="8" fill="none" fill-rule="evenodd"/><path d="M3347.9 1536.93C3347.8 1535.59 3347.91 1534.23 3347.59 1532.93 3347.32 1531.79 3346.3 1530.89 3346.17 1529.73 3345.96 1527.95 3346.35 1526.15 3346.58 1524.37 3346.87 1522.12 3346.81 1519.74 3347.72 1517.66 3349.34 1513.99 3349.67 1513.38 3351.11 1509.36 3351.49 1508.28 3351.81 1507.18 3352.16 1506.09 3354.72 1504.55 3357.04 1502.52 3359.84 1501.48 3360.62 1501.19 3361.38 1502.1 3362.16 1502.37 3366.99 1504.04 3364.06 1502.53 3368.54 1505.42 3369.37 1505.4 3370.29 1504.96 3371.02 1505.35 3372.25 1506.01 3373.01 1507.31 3373.97 1508.32 3375.24 1509.66 3376.44 1511.07 3377.71 1512.41 3378.74 1513.49 3380.8 1515.8 3382.41 1516.66 3386.29 1518.73 3385.44 1516.39 3391.44 1518.69L3393.75 1519.57C3396.42 1517.4 3399.32 1515.47 3401.76 1513.05 3402.35 1512.46 3402.47 1511.54 3402.65 1510.73 3403.21 1508.2 3404.03 1505.65 3403.96 1503.06L3403.74 1495.63C3403.69 1493.98 3403.32 1492.3 3403.6 1490.67 3403.76 1489.72 3404.04 1488.77 3404.09 1487.8 3404.16 1486.15 3403.94 1482.84 3403.94 1482.84L3405.23 1481.09" stroke="#C00000" stroke-width="4.58333" stroke-miterlimit="8" fill="none" fill-rule="evenodd"/><path d="M3321.85 1599.2C3320.04 1573.19 3316.58 1575.78 3320.72 1564.19 3323.47 1556.48 3320.98 1562.64 3325.52 1556.31 3326.21 1555.34 3326.48 1553.7 3327.28 1552.95 3328.25 1552.06 3331.77 1551.48 3330.61 1551.59 3328.54 1551.77 3326.57 1552.67 3324.54 1553.2 3323.92 1553.97 3323.51 1555.43 3322.68 1555.5 3317.54 1555.97 3317.77 1553.42 3314.48 1548.81 3313.23 1547.06 3311.87 1545.5 3310.57 1543.84 3310.24 1542.81 3310.22 1541.38 3309.6 1540.74 3308.78 1539.9 3306.76 1539.94 3306.76 1539.94" stroke="#C00000" stroke-width="4.58333" stroke-miterlimit="8" fill="none" fill-rule="evenodd"/><path d="M3400.98 1451.78C3400.65 1449.85 3400.49 1447.59 3399.98 1445.97 3399.58 1444.74 3398.69 1444.68 3398.32 1443.4 3395.75 1434.41 3401.77 1442.56 3395.03 1436.01L3360.21 1430.18C3347.65 1428.41 3374.03 1437.01 3350.62 1428.26L3350.85 1424.94" stroke="#C00000" stroke-width="4.58333" stroke-miterlimit="8" fill="none" fill-rule="evenodd"/><path d="M3422.1 1463.26C3423.88 1462.74 3425.57 1461.75 3427.42 1461.69 3428.24 1461.66 3428.73 1462.72 3429.5 1463.03 3434.29 1464.9 3429.5 1461.25 3435.57 1464.88 3436.19 1465.25 3436.54 1465.95 3437.02 1466.49 3440.53 1468.48 3440.19 1467.87 3442.93 1471.42 3443.03 1471.55 3446.77 1477.43 3447.21 1477.79 3447.61 1478.12 3448.24 1477.85 3448.75 1477.87" stroke="#C00000" stroke-width="4.58333" stroke-miterlimit="8" fill="none" fill-rule="evenodd"/><path d="M3432.84 1503.6C3433.36 1504.55 3433.96 1505.33 3434.38 1506.45 3435.95 1510.61 3435.2 1509.35 3435.71 1512.73 3435.85 1513.68 3436.05 1514.59 3436.22 1515.52 3436.27 1521.31 3436.52 1524.04 3434.94 1530.59 3434.71 1531.54 3433.97 1531.41 3433.49 1531.88 3430.9 1534.43 3432.54 1533.31 3430.59 1534.45 3429.59 1533.93 3428.6 1532.01 3427.6 1532.89 3426.91 1533.5 3428.65 1534.74 3429.14 1535.74 3429.46 1536.4 3429.73 1537.16 3430.03 1537.86 3430.09 1538.78 3430.09 1539.74 3430.2 1540.63 3430.32 1541.6 3430.78 1542.39 3430.72 1543.42 3430.53 1546.42 3429.94 1549.35 3429.48 1552.29 3429.37 1553 3429.3 1553.84 3429.01 1554.33 3428.73 1554.83 3428.29 1554.67 3427.95 1554.95 3426.97 1555.74 3425.99 1556.57 3425.04 1557.53 3424.28 1558.3 3423.59 1559.4 3422.82 1560.15 3422.25 1560.7 3421.61 1560.86 3421.03 1561.41 3420.26 1562.16 3419.58 1563.27 3418.81 1564.03 3418.48 1564.36 3418.1 1564.41 3417.75 1564.65 3417.5 1564.83 3417.26 1565.08 3417.02 1565.3" stroke="#C00000" stroke-width="4.58333" stroke-miterlimit="8" fill="none" fill-rule="evenodd"/><path d="M3311.35 1334.92C3312.45 1335.68 3313.64 1336.33 3314.65 1337.19 3315.39 1337.82 3315.77 1338.86 3316.58 1339.38 3320.03 1341.58 3325.18 1341.68 3328.81 1342.21 3330.81 1343.25 3332.79 1344.34 3334.81 1345.33 3335.46 1345.65 3336.24 1345.72 3336.83 1346.15 3338.68 1347.49 3340.24 1349.22 3342.06 1350.6 3344.85 1352.72 3347.92 1354.46 3350.64 1356.65 3363.97 1367.35 3341.98 1351.84 3356.52 1361.83 3360.36 1367.29 3358.08 1364.34 3363.56 1370.54L3366.78 1374.18C3367.84 1378.19 3366.45 1374.54 3369.95 1378.51 3374.69 1383.87 3367.93 1379.23 3376.47 1384.43 3382.5 1388.09 3388.78 1391.97 3395.9 1393.21 3404.98 1394.79 3399.98 1393.99 3410.92 1395.52 3420.76 1395.9 3430.61 1396.89 3440.46 1396.66 3441.61 1396.64 3442.3 1395.27 3443.34 1394.77 3444.45 1394.24 3445.7 1394.04 3446.85 1393.61 3447.81 1393.26 3448.74 1392.81 3449.68 1392.41 3450.81 1392.71 3452 1392.83 3453.07 1393.31 3455.99 1394.62 3456.69 1398.02 3458.13 1400.51 3458.71 1401.5 3459.42 1402.41 3460.02 1403.39 3462.25 1407.02 3462.51 1407.67 3464.36 1411.23 3465.43 1421.58 3465.39 1418.52 3462.78 1436.62 3462.58 1438.05 3461.66 1439.29 3461.15 1440.65 3459.46 1445.24 3461.34 1441.55 3458.76 1446.01 3459.02 1447 3459.75 1451.25 3461.12 1452.36 3462.07 1453.14 3463.35 1453.42 3464.46 1453.94 3465.08 1456.27 3465.07 1455.32 3464.98 1456.73" stroke="#C00000" stroke-width="4.58333" stroke-miterlimit="8" fill="none" fill-rule="evenodd"/><path d="M3449.08 1391C3450.2 1391.52 3451.2 1392.66 3452.43 1392.58 3453.39 1392.52 3455.59 1389.37 3456.11 1388.68L3458 1380.53C3459.04 1376.01 3458.85 1377.85 3459.02 1375.08" stroke="#C00000" stroke-width="4.58333" stroke-miterlimit="8" fill="none" fill-rule="evenodd"/><path d="M3307.03 1360.14C3308.1 1361.36 3309.11 1362.63 3310.25 1363.79 3313.22 1366.82 3314.04 1367.02 3317.46 1369.74 3318.35 1370.46 3319.11 1371.35 3320.07 1371.97 3321.11 1372.64 3322.3 1373.03 3323.42 1373.56 3324.49 1374.77 3325.4 1376.15 3326.64 1377.2 3327.19 1377.67 3328.03 1377.65 3328.65 1378.02 3329.63 1378.58 3332.65 1381.24 3333.24 1381.74 3333.86 1382.93 3334.71 1384.02 3335.09 1385.3 3336.03 1388.5 3335.15 1395.36 3335.01 1397.7" stroke="#C00000" stroke-width="4.58333" stroke-miterlimit="8" fill="none" fill-rule="evenodd"/><path d="M3309.51 1331.36C3309.12 1330.19 3308.63 1329.05 3308.35 1327.85 3308.08 1326.71 3308.05 1325.53 3307.87 1324.38 3307.72 1323.44 3307.53 1322.52 3307.36 1321.59 3308.14 1320.03 3308.58 1318.24 3309.71 1316.91 3310.18 1316.36 3311.13 1316.6 3311.81 1316.35 3312.78 1316.01 3313.66 1315.45 3314.64 1315.15 3315.55 1314.88 3316.53 1314.91 3317.43 1314.64 3318.41 1314.34 3319.27 1313.7 3320.26 1313.43 3321.39 1313.13 3322.6 1313.23 3323.73 1312.96 3324.94 1312.68 3326.06 1312.12 3327.25 1311.8 3329.34 1311.25 3332.15 1311.07 3334.2 1310.85 3335.63 1310.02 3337.56 1308.78 3339.17 1308.41 3340.53 1308.09 3341.95 1308.14 3343.33 1307.98 3344.49 1307.84 3345.64 1307.61 3346.8 1307.5 3348.64 1307.34 3350.5 1307.39 3352.34 1307.16 3354.21 1306.93 3356.05 1306.47 3357.91 1306.13 3359.37 1304.84 3361.86 1304.16 3362.28 1302.26 3363.24 1297.99 3362.17 1293.5 3361.72 1289.14 3361.59 1287.91 3361.29 1286.62 3360.56 1285.63 3360.13 1285.04 3359.14 1285.22 3358.54 1284.81 3358.01 1284.44 3357.69 1283.84 3357.26 1283.35" stroke="#C00000" stroke-width="4.58333" stroke-miterlimit="8" fill="none" fill-rule="evenodd"/><path d="M3449.36 1353.13C3442.11 1349.69 3444.67 1350.77 3431.86 1346.53 3428.06 1345.28 3424.18 1344.27 3420.37 1343.06 3418.78 1342.56 3417.28 1341.76 3415.65 1341.39 3412.96 1340.8 3410.19 1340.6 3407.46 1340.2 3398.69 1335.78 3406.23 1338.92 3391.85 1336.47 3389.1 1336.01 3383.7 1334.59 3383.7 1334.59 3382.44 1329.84 3384.28 1335.52 3380.56 1329.57 3380.18 1328.96 3380.19 1328.17 3380.01 1327.47 3380.73 1322.78 3382.36 1314.88 3381.07 1310.32 3380.54 1308.45 3378.89 1306.92 3377.21 1305.95 3375.88 1305.17 3374.63 1304.25 3373.22 1303.63 3372.15 1303.17 3370.95 1303.06 3369.83 1302.73 3368.92 1302.47 3368.02 1302.19 3367.13 1301.88 3366.45 1301.63 3365.83 1301.17 3365.11 1301.06 3363.07 1300.76 3361 1300.81 3358.94 1300.68" stroke="#C00000" stroke-width="4.58333" stroke-miterlimit="8" fill="none" fill-rule="evenodd"/><path d="M3377.2 1383.78C3378.29 1384.77 3379.73 1385.47 3380.46 1386.74 3381.05 1387.75 3380.64 1389.08 3380.94 1390.21 3381.2 1391.2 3381.74 1392.1 3382.14 1393.04 3381.8 1394.86 3382 1396.87 3381.11 1398.49 3376.21 1407.41 3374.52 1401.07 3377.13 1407.2" stroke="#C00000" stroke-width="4.58333" stroke-miterlimit="8" fill="none" fill-rule="evenodd"/><path d="M3414.69 1575.93C3409.6 1578.2 3408.91 1578.32 3402.86 1582.83 3401.94 1583.52 3401.38 1584.58 3400.63 1585.45 3395.67 1586.34 3390.74 1587.56 3385.73 1588.12 3384.5 1588.26 3383.3 1587.71 3382.07 1587.54 3374.03 1586.44 3390.25 1589.23 3375.28 1585.55 3373.38 1585.08 3371.4 1585.02 3369.46 1584.75 3368.31 1583.84 3367.12 1582.97 3366.02 1582.01 3364.78 1580.92 3363.74 1579.6 3362.43 1578.59 3360.88 1577.41 3359.09 1576.59 3357.49 1575.48 3354.09 1573.12 3353.73 1571.92 3350.09 1570.81 3349.4 1570.6 3348.65 1570.67 3347.93 1570.59 3348.4 1571.66 3348.51 1572.99 3349.36 1573.8 3349.88 1574.29 3350.95 1573.56 3351.52 1574.01 3352.26 1574.6 3352.09 1575.91 3352.8 1576.54 3353.94 1577.56 3356.85 1578.06 3358.25 1578.83 3366.53 1583.4 3360.25 1580.82 3365.5 1582.83 3365.88 1583.45 3366.29 1584.05 3366.63 1584.69 3367.51 1586.36 3369.18 1589.75 3369.18 1589.75 3369.62 1597.45 3369.88 1590.7 3368.02 1597.06 3366.61 1601.87 3368.96 1602.65 3363.28 1607.3 3358.35 1611.34 3360.53 1610.74 3357.86 1611.35" stroke="#C00000" stroke-width="4.58333" stroke-miterlimit="8" fill="none" fill-rule="evenodd"/><path d="M3314.5 1450.5C3315.88 1450.73 3317.35 1450.64 3318.63 1451.19 3326.47 1454.53 3321.71 1453.85 3327.58 1457.36 3328.61 1457.98 3331.67 1458.95 3333.09 1459.42 3335.27 1461.05 3336.18 1461.53 3337.91 1463.54 3338.66 1464.41 3339.31 1465.35 3339.98 1466.28 3340.46 1466.96 3340.82 1467.72 3341.35 1468.34 3342.2 1469.33 3343.19 1470.17 3344.11 1471.09 3344.45 1472.47 3345.65 1476.91 3345.49 1477.95 3345.22 1479.67 3344.83 1481.73 3343.42 1482.75 3341.92 1483.84 3339.75 1483.21 3337.91 1483.44 3336.76 1483.9 3335.69 1484.62 3334.47 1484.81 3330 1485.52 3327.66 1485.5 3324.14 1485.5" stroke="#C00000" stroke-width="4.58333" stroke-miterlimit="8" fill="none" fill-rule="evenodd"/></g></svg>