<svg width="492" height="491" xmlns="http://www.w3.org/2000/svg" xmlns:xlink="http://www.w3.org/1999/xlink" overflow="hidden"><defs><clipPath id="clip0"><rect x="2654" y="1189" width="492" height="491"/></clipPath></defs><g clip-path="url(#clip0)" transform="translate(-2654 -1189)"><path d="M437.225 294.753C437.237 277.945 430.422 261.852 418.342 250.164 435.259 222.034 426.168 185.515 398.038 168.598 396.622 167.747 395.172 166.954 393.69 166.224 401.458 140.22 386.675 112.841 360.67 105.073 360.208 104.936 359.744 104.804 359.279 104.68 357.394 76.1254 332.718 54.5046 304.163 56.3898 276.917 58.1881 255.741 80.8216 255.76 108.127L255.76 395.869C255.692 417.336 273.039 434.795 294.507 434.863 311.586 434.917 326.699 423.817 331.757 407.504 362.47 414.261 392.845 394.841 399.602 364.128 400.494 360.075 400.94 355.936 400.932 351.786 400.932 351.612 400.932 351.443 400.932 351.275 423.042 341.153 437.222 319.07 437.225 294.753ZM335.292 296.646C335.292 296.646 289.409 261.56 289.409 233.225 289.409 214.332 318.286 194.088 335.292 227.824 352.292 194.068 381.174 214.332 381.174 233.225 381.174 261.56 335.292 296.646 335.292 296.646Z" stroke="#C00000" stroke-width="5.11448" fill="#FF9999" transform="matrix(1.00204 0 0 1 2654 1189)"/><path d="M138.227 274.847C130.857 277.06 126.676 284.827 128.889 292.197 131.102 299.567 138.869 303.747 146.239 301.535 153.608 299.323 157.789 291.555 155.576 284.185 155.576 284.184 155.576 284.183 155.575 284.182 153.364 276.814 145.6 272.635 138.233 274.845 138.231 274.846 138.229 274.847 138.227 274.847Z" stroke="#C00000" stroke-width="5.11448" fill="#FF9999" transform="matrix(1.00204 0 0 1 2654 1189)"/><path d="M158.89 194.6C151.52 196.811 147.338 204.579 149.55 211.948 151.762 219.318 159.529 223.5 166.899 221.288 174.269 219.076 178.45 211.309 176.238 203.939 176.238 203.939 176.238 203.939 176.238 203.939 174.026 196.569 166.259 192.388 158.89 194.6Z" stroke="#C00000" stroke-width="5.11448" fill="#FF9999" transform="matrix(1.00204 0 0 1 2654 1189)"/><path d="M183.455 56.2604C156.181 56.2819 133.593 77.4445 131.798 104.66 105.573 111.648 89.9793 138.573 96.9684 164.797 97.0952 165.275 97.2297 165.75 97.3714 166.224 67.9303 180.729 55.8221 216.354 70.327 245.795 71.064 247.292 71.864 248.756 72.7242 250.185 48.0992 274.066 47.4964 313.388 71.3776 338.014 76.7591 343.562 83.1288 348.058 90.1599 351.27 90.1599 351.443 90.1599 351.612 90.1599 351.781 90.1092 383.228 115.561 408.763 147.009 408.813 151.145 408.82 155.269 408.376 159.309 407.489 165.676 427.991 187.458 439.449 207.96 433.082 224.252 428.021 235.341 412.929 235.301 395.869L235.301 108.107C235.305 79.4755 212.097 56.2635 183.465 56.2604 183.462 56.2604 183.459 56.2604 183.455 56.2604ZM179.205 302.829 174.801 311.013 165.666 310.742C163.827 312.618 161.766 314.263 159.529 315.641L157.995 324.648 149.136 327.333 142.876 320.72C140.261 320.779 137.648 320.518 135.097 319.943L127.573 325.165 119.431 320.781 119.64 311.626C117.767 309.787 116.126 307.725 114.751 305.489L105.729 303.924 103.064 295.05 109.749 288.846C109.668 286.222 109.907 283.597 110.46 281.031L105.217 273.579 109.621 265.396 118.791 265.657C120.605 263.775 122.641 262.119 124.852 260.726L126.386 251.714 135.26 249.049 141.531 255.729C144.162 255.662 146.792 255.918 149.361 256.491L156.834 251.228 165.017 255.637 164.746 264.772C166.64 266.608 168.302 268.67 169.697 270.909L178.703 272.444 181.368 281.312 174.719 287.588C174.775 290.203 174.515 292.815 173.942 295.367ZM199.77 222.592 195.367 230.775 186.232 230.499C184.418 232.382 182.383 234.039 180.171 235.434L178.601 244.477 169.733 247.142 163.457 240.493C160.842 240.552 158.229 240.291 155.678 239.715L148.205 244.978 140.022 240.575 140.365 231.338C138.477 229.527 136.82 227.492 135.429 225.277L126.417 223.742 123.758 214.874 130.406 208.598C130.341 205.986 130.595 203.375 131.163 200.824L125.819 193.331 130.294 185.102 139.429 185.378C141.259 183.504 143.312 181.86 145.541 180.483L147.106 171.466 155.995 168.781 162.255 175.389C164.869 175.335 167.479 175.597 170.029 176.172L177.507 170.924 185.69 175.333 185.409 184.509C187.296 186.319 188.953 188.355 190.344 190.569L199.356 192.104 202.021 200.972 195.372 207.253C195.412 209.903 195.127 212.549 194.523 215.13Z" stroke="#C00000" stroke-width="5.11448" fill="#FF9999" transform="matrix(1.00204 0 0 1 2654 1189)"/><path d="M2780.12 1339.54 2883.18 1366.16 2835.72 1549.93 2732.66 1523.31Z" fill="#FF9999" fill-rule="evenodd"/><rect x="2934" y="1376" width="120" height="152" fill="#FF9999"/></g></svg>