<svg width="58" height="58" xmlns="http://www.w3.org/2000/svg" xmlns:xlink="http://www.w3.org/1999/xlink" overflow="hidden"><defs><clipPath id="clip0"><rect x="101" y="111" width="58" height="58"/></clipPath></defs><g clip-path="url(#clip0)" transform="translate(-101 -111)"><path d="M133.323 144.652C131.148 143.685 129.154 142.235 127.583 140.302 126.677 139.215 125.952 138.067 125.408 136.798L105.833 139.335 107.465 152.506C108.371 159.817 115.017 164.952 122.327 164.046 129.637 163.14 134.773 156.494 133.867 149.183L133.323 144.652ZM122.508 143.444C122.871 142.9 123.596 142.719 124.2 143.021L127.04 144.773C127.583 145.135 127.765 145.86 127.463 146.465 127.221 146.827 126.858 147.069 126.435 147.069 126.194 147.069 126.013 147.008 125.831 146.887L122.992 145.135C122.387 144.773 122.206 144.048 122.508 143.444M113.083 146.646 115.258 144.169C115.681 143.685 116.467 143.625 116.95 144.048 117.433 144.471 117.494 145.256 117.071 145.74L114.896 148.217C114.654 148.458 114.352 148.64 113.99 148.64 113.688 148.64 113.446 148.519 113.204 148.337 112.721 147.915 112.66 147.129 113.083 146.646M128.308 155.95C127.765 156.373 127.04 156.252 126.617 155.708 125.287 153.956 123.173 153.05 120.998 153.352 118.823 153.594 117.01 155.044 116.165 157.038 115.983 157.521 115.5 157.762 115.077 157.762 114.896 157.762 114.775 157.702 114.594 157.642 113.99 157.4 113.688 156.675 113.929 156.071 115.137 153.292 117.735 151.298 120.696 150.935 123.717 150.573 126.677 151.842 128.55 154.258 128.973 154.802 128.852 155.587 128.308 155.95" fill="#FF0000"/><path d="M127.704 115.833 126.496 129.065C125.771 136.375 131.148 142.9 138.458 143.565 145.769 144.229 152.233 138.852 152.898 131.542L154.106 118.31 127.704 115.833ZM133.685 123.204 137.008 123.506C137.673 123.567 138.156 124.171 138.096 124.835 138.035 125.44 137.492 125.923 136.887 125.923 136.827 125.923 136.827 125.923 136.767 125.923L133.444 125.621C132.779 125.56 132.296 124.956 132.356 124.292 132.417 123.627 133.021 123.144 133.685 123.204M146.675 134.925C145.044 137.16 142.446 138.55 139.727 138.55 139.485 138.55 139.183 138.55 138.942 138.49 135.921 138.188 133.262 136.315 131.994 133.596 131.692 132.992 131.994 132.267 132.598 131.965 133.202 131.663 133.927 131.965 134.229 132.569 135.135 134.562 137.069 135.892 139.183 136.073 141.358 136.254 143.473 135.288 144.742 133.535 145.104 132.992 145.89 132.871 146.433 133.233 146.917 133.596 147.038 134.381 146.675 134.925M146.796 126.829C146.735 126.829 146.735 126.829 146.675 126.829L143.352 126.527C142.688 126.467 142.204 125.863 142.265 125.198 142.325 124.533 142.929 124.05 143.594 124.11L146.917 124.412C147.581 124.473 148.065 125.077 148.004 125.742 147.944 126.346 147.4 126.829 146.796 126.829" fill="#FF0000"/></g></svg>