<svg width="96" height="96" xmlns="http://www.w3.org/2000/svg" xmlns:xlink="http://www.w3.org/1999/xlink" overflow="hidden"><defs><clipPath id="clip0"><rect x="592" y="312" width="96" height="96"/></clipPath></defs><g clip-path="url(#clip0)" transform="translate(-592 -312)"><path d="M618.29 362C617.671 361.999 617.088 361.711 616.71 361.22 616.033 360.347 616.192 359.091 617.065 358.414 617.067 358.413 617.068 358.411 617.07 358.41 620.911 355.415 625.437 353.422 630.24 352.61 631.345 352.436 632.381 353.19 632.555 354.295 632.729 355.4 631.975 356.436 630.87 356.61 626.727 357.309 622.823 359.027 619.51 361.61 619.157 361.87 618.728 362.007 618.29 362Z"/><path d="M607.8 380.65 607.7 380.65C606.599 380.596 605.749 379.661 605.8 378.56 606.004 374.852 607.029 371.235 608.8 367.97 609.325 366.995 610.54 366.63 611.515 367.155 612.49 367.68 612.855 368.895 612.33 369.87 610.821 372.602 609.94 375.635 609.75 378.75 609.698 379.796 608.847 380.625 607.8 380.65Z"/><path d="M597.21 355.1C596.581 355.1 595.988 354.804 595.61 354.3 594.945 353.419 595.12 352.166 596 351.5 601.1 347.68 608.93 345.5 617.49 345.5 620.99 345.486 624.48 345.878 627.89 346.67 628.986 346.81 629.76 347.812 629.62 348.908 629.479 350.004 628.477 350.778 627.382 350.638 627.252 350.621 627.124 350.592 627 350.55 623.888 349.835 620.703 349.479 617.51 349.49 609.91 349.49 602.78 351.44 598.42 354.71 598.07 354.968 597.645 355.105 597.21 355.1Z"/><path d="M635.7 348.16C634.97 348.151 634.294 347.775 633.9 347.16 631.629 343.816 628.802 340.887 625.54 338.5 620.13 334.5 614.02 332.05 609.21 332.04 608.023 332.04 607.06 331.077 607.06 329.89 607.06 328.703 608.023 327.74 609.21 327.74L609.21 327.74C614.99 327.74 621.88 330.41 628.1 335.05 631.769 337.738 634.946 341.04 637.49 344.81 638.136 345.813 637.847 347.15 636.844 347.796 636.5 348.018 636.1 348.137 635.69 348.14Z"/><path d="M673.23 371.69C672.399 371.69 671.655 371.177 671.36 370.4 669.58 365.7 665.12 361.24 659.36 358.47 657.141 357.379 654.787 356.586 652.36 356.11 651.275 355.903 650.563 354.855 650.77 353.77 650.977 352.685 652.025 351.973 653.11 352.18 655.883 352.724 658.572 353.628 661.11 354.87 667.86 358.13 672.94 363.27 675.1 369 675.492 370.033 674.973 371.188 673.94 371.58 673.94 371.58 673.94 371.58 673.94 371.58 673.712 371.661 673.471 371.698 673.23 371.69Z"/><path d="M654.71 374 654.71 374C653.605 374 652.71 373.105 652.71 372 652.575 368.86 651.282 365.882 649.08 363.64 648.176 362.626 647.14 361.738 646 361 645.048 360.44 644.731 359.214 645.291 358.262 645.851 357.31 647.077 356.992 648.029 357.553 648.07 357.577 648.111 357.603 648.15 357.63 649.573 358.548 650.867 359.651 652 360.91 654.912 363.898 656.585 367.879 656.68 372.05 656.653 373.123 655.784 373.984 654.71 374Z"/><path d="M646.85 350.86C645.745 350.865 644.846 349.973 644.841 348.869 644.838 348.123 645.25 347.437 645.91 347.09 648.498 345.738 651.251 344.729 654.1 344.09 655.18 343.841 656.256 344.515 656.505 345.595 656.753 346.675 656.08 347.751 655 348 652.495 348.556 650.071 349.434 647.79 350.61 647.502 350.769 647.179 350.855 646.85 350.86Z"/><path d="M682.3 351.56C681.897 351.56 681.503 351.438 681.17 351.21 678.07 349.08 672.83 347.56 667.17 347.14 666.065 347.057 665.237 346.095 665.32 344.99 665.403 343.885 666.365 343.057 667.47 343.14 673.92 343.62 679.75 345.35 683.47 347.9 684.381 348.524 684.614 349.769 683.99 350.68 683.617 351.224 683 351.55 682.34 351.55Z"/><path d="M643.15 345.66C642.045 345.66 641.15 344.764 641.15 343.66 641.15 343.366 641.215 343.076 641.34 342.81 642.837 339.634 644.78 336.687 647.11 334.06 652.04 328.42 658.11 324.6 663.72 323.57 664.815 323.423 665.821 324.192 665.968 325.286 666.105 326.308 665.443 327.266 664.44 327.5 659.76 328.36 654.44 331.8 650.12 336.7 648.057 339.047 646.333 341.673 645 344.5 644.667 345.219 643.942 345.674 643.15 345.66Z"/><path d="M632.7 396.28C631.696 396.29 630.841 395.554 630.7 394.56 630.069 389.297 630.092 383.977 630.77 378.72 631.358 373.053 632.735 367.496 634.86 362.21 635.302 361.197 636.482 360.733 637.495 361.175 638.508 361.617 638.972 362.797 638.53 363.81 636.559 368.735 635.287 373.912 634.75 379.19 634.108 384.104 634.085 389.08 634.68 394 634.835 395.087 634.085 396.095 633 396.26 632.901 396.278 632.8 396.285 632.7 396.28Z"/><path d="M624.79 372.39C624.651 372.41 624.509 372.41 624.37 372.39 623.289 372.162 622.598 371.101 622.826 370.021 622.827 370.014 622.828 370.007 622.83 370 623.484 367.28 624.678 364.72 626.34 362.47 626.955 361.631 627.623 360.833 628.34 360.08 629.097 359.274 630.364 359.233 631.17 359.99 631.976 360.747 632.017 362.014 631.26 362.82 630.674 363.453 630.126 364.121 629.62 364.82 628.285 366.612 627.32 368.652 626.78 370.82 626.575 371.75 625.743 372.408 624.79 372.39Z"/><path d="M636.75 333.55C635.772 333.566 634.926 332.872 634.75 331.91 634.368 329.524 633.669 327.2 632.67 325 632.162 324.017 632.547 322.808 633.53 322.3 634.513 321.792 635.722 322.177 636.23 323.16 637.421 325.701 638.259 328.392 638.72 331.16 638.921 332.245 638.205 333.288 637.12 333.49 637 333.525 636.875 333.545 636.75 333.55Z"/><path d="M648.88 388C647.866 388.008 647.007 387.256 646.88 386.25 646.109 379.576 644.621 373.005 642.44 366.65 642.073 365.606 642.621 364.462 643.665 364.095 644.709 363.728 645.853 364.276 646.22 365.32 648.49 371.948 650.042 378.801 650.85 385.76 650.992 386.855 650.218 387.858 649.123 388 649.122 388 649.121 388 649.12 388Z"/><path d="M603 361C603 362.105 602.105 363 601 363 599.895 363 599 362.105 599 361 599 359.895 599.895 359 601 359 602.105 359 603 359.895 603 361Z"/><path d="M624 378C624 379.105 623.105 380 622 380 620.895 380 620 379.105 620 378 620 376.895 620.895 376 622 376 623.105 376 624 376.895 624 378Z"/><path d="M665 373C665 374.105 664.105 375 663 375 661.895 375 661 374.105 661 373 661 371.895 661.895 371 663 371 664.105 371 665 371.895 665 373Z"/><path d="M652 396C652 397.105 651.105 398 650 398 648.895 398 648 397.105 648 396 648 394.895 648.895 394 650 394 651.105 394 652 394.895 652 396Z"/><path d="M648 327C648 328.105 647.105 329 646 329 644.895 329 644 328.105 644 327 644 325.895 644.895 325 646 325 647.105 325 648 325.895 648 327Z"/><path d="M625 324C625 325.105 624.105 326 623 326 621.895 326 621 325.105 621 324 621 322.895 621.895 322 623 322 624.105 322 625 322.895 625 324Z"/><path d="M663 345C663 346.105 662.105 347 661 347 659.895 347 659 346.105 659 345 659 343.895 659.895 343 661 343 662.105 343 663 343.895 663 345Z"/><path d="M616 364C616 365.105 615.105 366 614 366 612.895 366 612 365.105 612 364 612 362.895 612.895 362 614 362 615.105 362 616 362.895 616 364Z"/><path d="M640 337.96C640 339.065 639.105 339.96 638 339.96 636.895 339.96 636 339.065 636 337.96 636 336.855 636.895 335.96 638 335.96 639.105 335.96 640 336.855 640 337.96Z"/><path d="M611.76 390.44C611.964 390.249 612.045 389.96 611.97 389.69 611.868 389.426 611.622 389.246 611.34 389.23L609.05 389.23C608.763 389.227 608.51 389.042 608.42 388.77L607.67 386.51C607.568 386.222 607.305 386.022 607 386 606.71 386.02 606.453 386.196 606.33 386.46L605.58 388.71C605.508 388.995 605.243 389.189 604.95 389.17L602.66 389.17C602.37 389.163 602.112 389.352 602.03 389.63 601.947 389.9 602.029 390.193 602.24 390.38L603.03 391.09 604 392C604.089 392.099 604.157 392.215 604.2 392.34 604.249 392.458 604.249 392.592 604.2 392.71L603.49 395.09C603.396 395.37 603.503 395.678 603.75 395.84 603.986 396.009 604.304 396.009 604.54 395.84L606.54 394.42C606.783 394.261 607.097 394.261 607.34 394.42L609.34 395.84C609.576 396.009 609.894 396.009 610.13 395.84 610.37 395.673 610.472 395.368 610.38 395.09L609.67 392.71C609.588 392.453 609.671 392.171 609.88 392L611.72 390.42Z"/><path d="M603.76 336.44C603.964 336.249 604.045 335.96 603.97 335.69 603.868 335.426 603.622 335.246 603.34 335.23L601.05 335.23C600.763 335.227 600.51 335.042 600.42 334.77L599.67 332.51C599.568 332.222 599.305 332.022 599 332 598.71 332.02 598.453 332.196 598.33 332.46L597.58 334.71C597.508 334.995 597.243 335.189 596.95 335.17L594.66 335.17C594.37 335.163 594.112 335.352 594.03 335.63 593.947 335.9 594.029 336.193 594.24 336.38L595 337.1 596 338C596.089 338.099 596.157 338.215 596.2 338.34 596.249 338.458 596.249 338.592 596.2 338.71L595.49 341.09C595.396 341.37 595.503 341.678 595.75 341.84 595.986 342.009 596.304 342.009 596.54 341.84L598.54 340.42C598.783 340.261 599.097 340.261 599.34 340.42L601.34 341.84C601.576 342.009 601.894 342.009 602.13 341.84 602.37 341.673 602.472 341.368 602.38 341.09L601.67 338.71C601.597 338.444 601.697 338.161 601.92 338L603.76 336.42Z"/><path d="M672.76 382.34C672.964 382.149 673.046 381.86 672.97 381.59 672.868 381.326 672.622 381.146 672.34 381.13L670.05 381.13C669.763 381.127 669.51 380.942 669.42 380.67L668.67 378.41C668.565 378.126 668.302 377.93 668 377.91 667.71 377.93 667.453 378.106 667.33 378.37L666.58 380.63C666.501 380.909 666.239 381.096 665.95 381.08L663.66 381.08C663.37 381.073 663.112 381.262 663.03 381.54 662.947 381.81 663.029 382.103 663.24 382.29L664 383 665 383.92C665.089 384.019 665.157 384.134 665.2 384.26 665.249 384.378 665.249 384.512 665.2 384.63L664.53 387C664.436 387.28 664.543 387.588 664.79 387.75 665.026 387.919 665.344 387.919 665.58 387.75L667.58 386.33C667.823 386.171 668.137 386.171 668.38 386.33L670.38 387.75C670.616 387.919 670.934 387.919 671.17 387.75 671.41 387.583 671.512 387.278 671.42 387L670.71 384.62C670.628 384.363 670.711 384.081 670.92 383.91L672.76 382.33Z"/><path d="M678.76 333.44C678.964 333.249 679.046 332.96 678.97 332.69 678.868 332.426 678.622 332.246 678.34 332.23L676.05 332.23C675.763 332.227 675.51 332.042 675.42 331.77L674.67 329.51C674.568 329.222 674.305 329.022 674 329 673.71 329.02 673.453 329.196 673.33 329.46L672.58 331.72C672.501 331.999 672.239 332.186 671.95 332.17L669.66 332.17C669.37 332.163 669.112 332.352 669.03 332.63 668.947 332.9 669.029 333.193 669.24 333.38L670.03 334.09 671 335C671.089 335.099 671.157 335.215 671.2 335.34 671.249 335.458 671.249 335.592 671.2 335.71L670.49 338.09C670.396 338.37 670.503 338.678 670.75 338.84 670.986 339.009 671.304 339.009 671.54 338.84L673.54 337.42C673.783 337.261 674.097 337.261 674.34 337.42L676.34 338.84C676.576 339.009 676.894 339.009 677.13 338.84 677.37 338.673 677.472 338.368 677.38 338.09L676.67 335.71C676.588 335.453 676.671 335.171 676.88 335L678.72 333.42Z"/><path d="M686 364C686 365.105 685.105 366 684 366 682.895 366 682 365.105 682 364 682 362.895 682.895 362 684 362 685.105 362 686 362.895 686 364Z"/></g></svg>