<svg width="292" height="352" xmlns="http://www.w3.org/2000/svg" xmlns:xlink="http://www.w3.org/1999/xlink" overflow="hidden"><defs><clipPath id="clip0"><rect x="1945" y="492" width="292" height="352"/></clipPath><clipPath id="clip1"><rect x="1944" y="612" width="294" height="232"/></clipPath><clipPath id="clip2"><rect x="1944" y="612" width="294" height="232"/></clipPath><clipPath id="clip3"><rect x="1944" y="551" width="294" height="293"/></clipPath><clipPath id="clip4"><rect x="2018" y="491" width="144" height="142"/></clipPath><clipPath id="clip5"><rect x="2018" y="491" width="144" height="142"/></clipPath><clipPath id="clip6"><rect x="2018" y="491" width="144" height="142"/></clipPath><clipPath id="clip7"><rect x="2091" y="491" width="71" height="142"/></clipPath><clipPath id="clip8"><rect x="2091" y="491" width="71" height="142"/></clipPath><clipPath id="clip9"><rect x="2020" y="491" width="142" height="142"/></clipPath></defs><g clip-path="url(#clip0)" transform="translate(-1945 -492)"><g clip-path="url(#clip1)"><g clip-path="url(#clip2)"><g clip-path="url(#clip3)"><path d="M145.24 57.7917C158.679 57.7917 169.573 46.8974 169.573 33.4584 169.573 20.0194 158.679 9.12501 145.24 9.12501 131.801 9.12501 120.906 20.0194 120.906 33.4584 120.922 46.891 131.807 57.7765 145.24 57.7917ZM145.24 15.2083C155.319 15.2083 163.49 23.3791 163.49 33.4584 163.49 43.5375 155.319 51.7084 145.24 51.7084 135.16 51.7084 126.99 43.5375 126.99 33.4584 127 23.3833 135.165 15.2184 145.24 15.2083Z" transform="matrix(1 0 0 1.00159 1945 551.536)"/><path d="M240.115 115.206C238.883 107.471 231.628 102.189 223.888 103.392L201.766 106.875 191.908 81.2399 191.625 80.6042C185.478 66.5395 170.58 63.875 145.24 63.875 119.9 63.875 105.001 66.5395 98.8299 80.6346L88.7133 106.875 66.5912 103.392C58.8478 102.174 51.5827 107.463 50.364 115.206 49.1452 122.95 54.4343 130.215 62.1778 131.434L95.6361 136.699C98.8457 137.217 102.136 136.607 104.947 134.974 106.396 134.125 106.882 132.261 106.032 130.812 105.191 129.376 103.352 128.883 101.905 129.706 100.301 130.641 98.4211 130.989 96.5882 130.691L63.1298 125.426C58.7051 124.729 55.6832 120.577 56.3804 116.152 57.0775 111.727 61.2297 108.706 65.6544 109.403L92.631 113.646 104.189 83.6185 104.433 83.0436C108.715 73.2586 119.033 69.9645 145.255 69.9645 171.477 69.9645 181.794 73.2647 186.065 83.0193L197.87 113.652 224.846 109.409C229.258 108.631 233.465 111.578 234.243 115.99 235.02 120.402 232.074 124.61 227.662 125.387 227.566 125.404 227.47 125.419 227.374 125.432L193.915 130.697C192.077 130.991 190.193 130.641 188.583 129.706 187.123 128.876 185.266 129.386 184.436 130.847 183.613 132.293 184.106 134.132 185.542 134.974 187.698 136.218 190.143 136.874 192.632 136.875 193.373 136.875 194.114 136.816 194.846 136.699L228.305 131.434C236.047 130.214 241.335 122.949 240.115 115.206Z" transform="matrix(1 0 0 1.00159 1945 551.536)"/><path d="M172.615 97.3334C170.935 97.3334 169.573 98.6952 169.573 100.375L169.573 276.792 148.281 276.792 148.281 173.375 142.198 173.375 142.198 276.792 120.906 276.792 120.906 100.375C120.906 98.6952 119.545 97.3334 117.865 97.3334 116.185 97.3334 114.823 98.6952 114.823 100.375L114.823 282.875 175.656 282.875 175.656 100.375C175.656 98.6952 174.295 97.3334 172.615 97.3334Z" transform="matrix(1 0 0 1.00159 1945 551.536)"/></g></g></g><g clip-path="url(#clip4)"><g clip-path="url(#clip5)"><g clip-path="url(#clip6)"><path d="M86.452 24.7851C91.7473 24.801 96.1282 28.9104 96.4821 34.194L96.6202 36.2957 98.6544 36.8406 98.9085 36.9111C103.884 38.4009 106.713 43.638 105.231 48.6156L104.524 50.995 106.75 52.0907C107.044 52.2375 107.345 52.3991 107.631 52.5724 113.292 55.9887 115.12 63.3417 111.717 69.0107L110.513 71.0111 112.19 72.6355C117.208 77.5043 117.328 85.5188 112.46 90.5362 111.365 91.6639 110.071 92.5781 108.642 93.2318L106.926 94.0161 106.926 96.0342C106.946 102.298 101.884 107.392 95.6201 107.411 94.7849 107.414 93.9519 107.324 93.1363 107.144L90.5102 106.568 89.7039 109.128C88.5762 112.722 84.7482 114.722 81.1538 113.594 78.3102 112.702 76.3751 110.067 76.375 107.087L76.375 34.8652C76.3782 29.5634 80.4855 25.1692 85.775 24.8086 85.9997 24.7925 86.2244 24.7851 86.4462 24.7851M86.4462 21.8476C86.1602 21.8476 85.8723 21.8575 85.5826 21.877 78.7427 22.3292 73.4288 28.0135 73.4375 34.8681L73.4375 107.087C73.4383 112.476 77.8067 116.844 83.1958 116.845L83.1958 116.845C87.4596 116.845 91.2297 114.077 92.5077 110.009 100.221 111.698 107.843 106.814 109.532 99.1014 109.753 98.091 109.864 97.0597 109.862 96.0254L109.862 95.8961C117.695 92.3131 121.14 83.0592 117.557 75.2268 116.751 73.4646 115.623 71.8681 114.232 70.5191 118.479 63.4617 116.202 54.2979 109.146 50.0491 108.787 49.8347 108.42 49.6334 108.046 49.4484 109.994 42.9191 106.28 36.0465 99.7511 34.0982 99.7498 34.0977 99.7485 34.0975 99.7472 34.097 99.6355 34.0632 99.5239 34.0324 99.4123 34.003 98.9654 27.1708 93.2973 21.8554 86.4506 21.8476Z" transform="matrix(1.0071 0 0 1 2019 492)"/><path d="M54.5552 24.791C60.1158 24.8 64.6201 29.3076 64.625 34.8681L64.625 107.081C64.6197 110.847 61.5623 113.896 57.796 113.89 54.8234 113.886 52.196 111.957 51.3019 109.122L50.4941 106.564 47.8724 107.138C47.0692 107.314 46.2493 107.403 45.4269 107.402 39.1542 107.399 34.0718 102.311 34.075 96.0386 34.075 96.0342 34.075 96.0298 34.075 96.0254L34.075 94.0088 32.358 93.2245C26.001 90.3222 23.2004 82.816 26.1026 76.459 26.7574 75.0247 27.6745 73.7255 28.8066 72.6282L30.4824 71.0037 29.278 69.0048C29.1047 68.711 28.9417 68.4173 28.7934 68.1235 25.8773 62.187 28.3194 55.0104 34.2512 52.0848L36.4749 50.9891 35.7685 48.6156C35.7435 48.5304 35.7185 48.4452 35.695 48.3571 34.3598 43.3415 37.335 38.191 42.347 36.8421L44.3812 36.2987 44.5193 34.1984C44.8807 28.9175 49.262 24.8138 54.5552 24.7984M54.5552 21.8609 54.5552 21.8609C47.7094 21.8647 42.0393 27.1764 41.5891 34.0074 35.0066 35.7674 31.0971 42.5306 32.8572 49.1131 32.8577 49.1151 32.8583 49.1173 32.8589 49.1194 32.8882 49.2325 32.9205 49.3441 32.9543 49.4557 25.5677 53.0959 22.5287 62.0337 26.1658 69.4219 26.3508 69.7998 26.552 70.168 26.7694 70.5264 20.5882 76.521 20.4368 86.3912 26.4313 92.5725 27.7799 93.9631 29.3759 95.0902 31.1375 95.8961L31.1375 96.0254C31.1285 103.921 37.522 110.33 45.4181 110.34L45.4358 110.34C46.4645 110.34 47.4902 110.228 48.4952 110.008 50.1067 115.15 55.5814 118.012 60.7234 116.4 64.794 115.125 67.5641 111.352 67.5625 107.087L67.5625 34.8681C67.5641 27.6825 61.7408 21.856 54.5552 21.8535Z" transform="matrix(1.0071 0 0 1 2019 492)"/><path d="M28.0928 31.8175C27.7075 31.8159 27.3383 31.6629 27.0646 31.3916L20.091 24.4723C19.5054 23.9109 19.4859 22.9812 20.0473 22.3956 20.6086 21.81 21.5383 21.7905 22.1239 22.3519 22.1358 22.3632 22.1476 22.3749 22.159 22.3867L29.1326 29.306C29.7085 29.8772 29.7124 30.8072 29.1412 31.3831 28.8669 31.6596 28.494 31.8159 28.1045 31.8175Z" transform="matrix(1.0071 0 0 1 2019 492)"/><path d="M18.5856 50.6072C18.3887 50.6068 18.1938 50.5668 18.0127 50.4897L7.99881 46.2392C7.25649 45.9121 6.91984 45.0452 7.24688 44.3029 7.56757 43.575 8.40944 43.2347 9.1459 43.5352L19.1598 47.7858C19.907 48.1017 20.2564 48.9635 19.9403 49.7107 19.7102 50.2549 19.1764 50.6081 18.5856 50.6072Z" transform="matrix(1.0071 0 0 1 2019 492)"/><path d="M14.0119 71.3019 3.5955 71.3019C2.78434 71.3019 2.12675 70.6443 2.12675 69.8332 2.12675 69.022 2.78434 68.3644 3.5955 68.3644L14.0119 68.3644C14.8231 68.3644 15.4806 69.022 15.4806 69.8332 15.4806 70.6443 14.8231 71.3019 14.0119 71.3019Z" transform="matrix(1.0071 0 0 1 2019 492)"/><path d="M6.3494 97.0329C5.53824 97.0337 4.88013 96.3765 4.87946 95.5654 4.87899 94.9868 5.21816 94.462 5.74575 94.2247L14.2821 90.381C15.0162 90.0359 15.8911 90.3514 16.2361 91.0855 16.5812 91.8197 16.2657 92.6945 15.5314 93.0395 15.5176 93.046 15.5035 93.0523 15.4894 93.0585L6.95306 96.9022C6.76338 96.9881 6.55761 97.0326 6.3494 97.0329Z" transform="matrix(1.0071 0 0 1 2019 492)"/><path d="M20.611 118.121C19.7998 118.12 19.1428 117.462 19.1434 116.651 19.1438 116.25 19.3079 115.867 19.5975 115.591L26.1658 109.322C26.7527 108.76 27.6837 108.781 28.2455 109.367 28.8073 109.954 28.7869 110.885 28.2 111.447L21.6317 117.716C21.3566 117.978 20.9908 118.123 20.611 118.121Z" transform="matrix(1.0071 0 0 1 2019 492)"/><path d="M50.1784 69.2236 48.5627 67.5125C48.3086 67.4993 48.0545 67.4729 47.8019 67.4376L45.8925 68.7874 42.4469 66.9324 42.5335 64.5648C42.3661 64.3768 42.2074 64.181 42.0576 63.9772L39.7488 63.5866 38.6193 59.8515 40.3289 58.2359C40.3421 57.9833 40.3671 57.7336 40.4024 57.4839L39.0276 55.5569 40.9017 52.1054 43.2517 52.1758C43.4441 52.0084 43.6439 51.8468 43.851 51.6956L44.2505 49.3926 47.9796 48.2631 49.5953 49.961C49.8508 49.9757 50.1049 50.0006 50.359 50.0374L52.2772 48.692 55.7155 50.5411 55.6436 52.8911C55.8129 53.081 55.973 53.277 56.1239 53.4786L58.4342 53.8708 59.5637 57.6088 57.8496 59.2244C57.8335 59.4873 57.8056 59.7487 57.7674 60.0087L59.1142 61.9181 57.2489 65.3593 54.9092 65.2903C54.7134 65.4617 54.5145 65.6247 54.3129 65.7794L53.9031 68.0942ZM49.8361 64.5736 51.0699 65.8837 51.3269 65.8073 51.6353 64.0301 52.1861 63.682C52.5831 63.4306 52.9477 63.1311 53.2715 62.7905L53.7239 62.3161 55.5217 62.3704 55.6509 62.131 54.611 60.6623 54.7579 60.0175C54.8648 59.5548 54.9142 59.0807 54.9048 58.606L54.8945 57.9568 56.2017 56.7275 56.1253 56.4734 54.3481 56.1797 53.9986 55.623C53.7498 55.2269 53.4538 54.8625 53.1173 54.5376L52.6459 54.0852 52.7017 52.2787 52.4593 52.1479 50.9906 53.1761 50.3575 53.0292C49.8997 52.9236 49.4303 52.8772 48.9608 52.8911L48.3116 52.9044 47.0808 51.6045 46.8223 51.6824 46.5124 53.4698 45.9484 53.8179C45.55 54.0632 45.1836 54.3568 44.8571 54.6918L44.4062 55.1545 42.6114 55.1016 42.4762 55.3498 43.5234 56.8186 43.3766 57.456C43.2754 57.915 43.2295 58.3844 43.24 58.8543L43.2547 59.5078 41.9431 60.7431 42.0194 60.9957 43.7937 61.2894 44.1447 61.8461C44.3929 62.2425 44.6889 62.6071 45.026 62.9315L45.5004 63.3883 45.4475 65.2125 45.684 65.3402 47.1527 64.3048 47.7887 64.4517C48.2452 64.5589 48.7139 64.6057 49.1825 64.5912Z" transform="matrix(1.0071 0 0 1 2019 492)"/><path d="M49.0856 56.0533C48.8234 56.0535 48.5626 56.092 48.3116 56.1679L48.3116 56.1679C46.8913 56.5965 46.0873 58.0955 46.5159 59.5158 46.9446 60.9362 48.4435 61.7401 49.8639 61.3115 51.2842 60.8829 52.0882 59.3839 51.6594 57.9636 51.3171 56.8291 50.2721 56.0531 49.0871 56.0533Z" transform="matrix(1.0071 0 0 1 2019 492)"/><path d="M46.1187 90.9068 44.5031 89.1957C44.249 89.181 43.9949 89.156 43.7423 89.1193L41.8329 90.4706 38.3887 88.6141 38.4754 86.2479C38.3064 86.0599 38.1478 85.8631 37.9965 85.6604L35.6891 85.2697 34.5597 81.5332 36.2693 79.9176C36.2825 79.665 36.3075 79.4138 36.3427 79.1641L34.9562 77.2445 36.8318 73.7944 39.1818 73.8649C39.3728 73.696 39.574 73.5359 39.7796 73.3846L40.1806 71.0801 43.9083 69.9507 45.5165 71.6485C45.7721 71.6632 46.0262 71.6897 46.2803 71.7249L48.1985 70.3795 51.6353 72.2302 51.5649 74.5802C51.7342 74.7701 51.8943 74.966 52.0451 75.1677L54.3555 75.5583 55.4849 79.2963 53.7709 80.9119C53.7543 81.1753 53.7264 81.4367 53.6872 81.6962L55.034 83.6056 53.1834 87.0469 50.8437 86.9764C50.6528 87.1482 50.453 87.3113 50.2474 87.4655L49.8449 89.7788ZM45.775 86.2552 47.0088 87.5668 47.2644 87.489 47.5728 85.7118 48.1236 85.3637C48.5212 85.1117 48.8866 84.8123 49.2119 84.4722L49.6643 83.9992 51.4606 84.0536 51.5898 83.8127 50.5499 82.344 50.6968 81.6992C50.8037 81.2365 50.8531 80.7624 50.8437 80.2877L50.8334 79.64 52.1406 78.4092 52.0642 78.1551 50.287 77.8613 49.9375 77.2988C49.6897 76.9024 49.3937 76.5383 49.0562 76.2149L48.5862 75.7625 48.6406 73.9559 48.3982 73.8252 46.9295 74.8533 46.2964 74.7065C45.8394 74.5997 45.3703 74.5528 44.9011 74.5669L44.2505 74.5802 43.0211 73.2803 42.7612 73.3596 42.4513 75.1441 41.8902 75.4922C41.4901 75.7403 41.1216 76.0363 40.793 76.3735L40.3421 76.8332 38.5517 76.7803 38.4151 77.0286 39.4624 78.4973 39.3155 79.1347C39.2146 79.5937 39.1682 80.0631 39.1774 80.533L39.1936 81.1866 37.882 82.4233 37.9584 82.6759 39.7326 82.9697 40.0836 83.5263C40.3321 83.9221 40.6281 84.2862 40.9649 84.6102L41.4393 85.067 41.3732 86.8853 41.6082 87.0116 43.077 85.9835 43.7129 86.1304C44.1693 86.2388 44.6379 86.2858 45.1068 86.2699Z" transform="matrix(1.0071 0 0 1 2019 492)"/><path d="M45.0201 77.735C44.7579 77.7359 44.4972 77.7744 44.2461 77.8496L44.2461 77.8496C42.829 78.2805 42.0296 79.7788 42.4605 81.1958 42.8914 82.6129 44.3897 83.4123 45.8068 82.9814 47.2238 82.5505 48.0233 81.0522 47.5923 79.6351 47.2483 78.5039 46.2039 77.7314 45.0216 77.7336Z" transform="matrix(1.0071 0 0 1 2019 492)"/></g></g></g><g clip-path="url(#clip7)"><g clip-path="url(#clip8)"><g clip-path="url(#clip9)"><path d="M22.0312 81.6904C22.0279 77.4721 23.7379 73.4332 26.7694 70.5 22.5224 63.4437 24.7997 54.2806 31.8559 50.0335 32.2135 49.8184 32.5799 49.6182 32.9543 49.4337 31.0079 42.9038 34.7237 36.0324 41.2536 34.0861 41.365 34.053 41.4769 34.0214 41.5891 33.9913 42.0714 26.827 48.2703 21.4104 55.4346 21.8927 62.2579 22.3522 67.5588 28.019 67.5625 34.8578L67.5625 107.057C67.5636 112.446 63.1962 116.815 57.8076 116.816 53.5422 116.817 49.7708 114.047 48.4952 109.977 40.7873 111.672 33.1652 106.797 31.4707 99.089 31.2478 98.0747 31.136 97.0389 31.1375 96.0004 31.1375 95.9563 31.1375 95.9137 31.1375 95.8711 25.5905 93.3314 22.0329 87.7913 22.0312 81.6904Z" transform="matrix(1.0038 0 0 1 2020.46 492)"/><path d="M112.051 31.2006C110.429 31.2011 109.113 29.8863 109.113 28.264 109.112 27.4847 109.422 26.7374 109.973 26.1863L116.203 19.9544C117.35 18.807 119.21 18.8067 120.357 19.9537 121.505 21.1006 121.505 22.9607 120.358 24.108L114.122 30.34C113.573 30.8903 112.828 31.1999 112.051 31.2006Z" transform="matrix(1.0038 0 0 1 2020.46 492)"/><path d="M122.188 50.9186C120.566 50.9204 119.249 49.6067 119.247 47.9843 119.246 46.8017 119.954 45.7335 121.044 45.2742L130.253 41.3805C131.733 40.7149 133.472 41.3747 134.137 42.8543 134.803 44.3338 134.143 46.0726 132.663 46.7382 132.623 46.7565 132.583 46.7736 132.541 46.7899L123.331 50.6851C122.969 50.8386 122.581 50.9179 122.188 50.9186Z" transform="matrix(1.0038 0 0 1 2020.46 492)"/><path d="M135.125 72.7516 126.991 72.7516C125.369 72.7516 124.053 71.4364 124.053 69.8141 124.053 68.1917 125.369 66.8766 126.991 66.8766L135.125 66.8766C136.747 66.8766 138.062 68.1917 138.062 69.8141 138.062 71.4364 136.747 72.7516 135.125 72.7516Z" transform="matrix(1.0038 0 0 1 2020.46 492)"/><path d="M133.647 99.4167C133.227 99.4167 132.812 99.3261 132.43 99.1509L124.631 95.5891C123.155 94.9147 122.505 93.1714 123.18 91.6955 123.854 90.2195 125.597 89.5699 127.073 90.2444L134.871 93.8061C136.347 94.4788 136.999 96.2208 136.326 97.6971 135.848 98.7464 134.8 99.4189 133.647 99.4167Z" transform="matrix(1.0038 0 0 1 2020.46 492)"/><path d="M119.195 121.445C118.416 121.445 117.669 121.135 117.118 120.584L110.891 114.352C109.724 113.225 109.691 111.366 110.818 110.199 111.945 109.032 113.805 109 114.972 110.127 114.996 110.15 115.021 110.174 115.044 110.199L121.276 116.429C122.424 117.576 122.425 119.436 121.278 120.583 120.727 121.135 119.979 121.445 119.199 121.445Z" transform="matrix(1.0038 0 0 1 2020.46 492)"/><path d="M118.969 81.6904C118.973 77.4723 117.263 73.4333 114.232 70.5 118.479 63.4435 116.201 54.2804 109.145 50.0337 108.787 49.8184 108.42 49.6182 108.046 49.4337 109.992 42.9038 106.277 36.0324 99.7467 34.0858 99.6357 34.0528 99.5242 34.0212 99.4123 33.9913 98.9421 26.8263 92.7525 21.3989 85.5875 21.8691 78.7464 22.3179 73.4294 28.002 73.4375 34.8578L73.4375 107.057C73.4391 112.447 77.8092 116.814 83.1986 116.813 87.4611 116.811 91.2296 114.044 92.5062 109.977 100.213 111.672 107.835 106.797 109.529 99.0906 109.752 98.0757 109.864 97.0395 109.862 96.0004 109.862 95.9563 109.862 95.9137 109.862 95.8711 115.409 93.3314 118.967 87.7913 118.969 81.6904ZM93.5593 82.1545C93.5593 82.1545 81.7051 73.0894 81.7051 65.7677 81.7051 60.887 89.1663 55.6568 93.5593 64.3738 97.9524 55.6568 105.412 60.887 105.412 65.7677 105.418 73.0894 93.5593 82.1545 93.5593 82.1545Z" transform="matrix(1.0038 0 0 1 2020.46 492)"/></g></g></g></g></svg>