<svg width="58" height="58" xmlns="http://www.w3.org/2000/svg" xmlns:xlink="http://www.w3.org/1999/xlink" overflow="hidden"><defs><clipPath id="clip0"><rect x="356" y="152" width="58" height="58"/></clipPath></defs><g clip-path="url(#clip0)" transform="translate(-356 -152)"><path d="M400.708 156.833 369.292 156.833C367.624 156.835 366.273 158.187 366.271 159.854L366.271 202.146C366.273 203.813 367.624 205.165 369.292 205.167L400.708 205.167C402.376 205.165 403.727 203.813 403.729 202.146L403.729 159.854C403.727 158.187 402.376 156.835 400.708 156.833ZM369.292 158.042 400.708 158.042C401.709 158.042 402.521 158.853 402.521 159.854L402.521 165.896 397.083 165.896 397.083 165.292C397.083 163.957 396.001 162.875 394.667 162.875 393.332 162.875 392.25 163.957 392.25 165.292L392.25 165.896 391.042 165.896 391.042 165.292C391.042 163.957 389.96 162.875 388.625 162.875 387.29 162.875 386.208 163.957 386.208 165.292L386.208 165.896 377.75 165.896 377.75 165.292C377.75 163.957 376.668 162.875 375.333 162.875 373.999 162.875 372.917 163.957 372.917 165.292L372.917 165.896 367.479 165.896 367.479 159.854C367.479 158.853 368.291 158.042 369.292 158.042ZM394.667 191.875C393.332 191.875 392.25 192.957 392.25 194.292L392.25 194.896 391.042 194.896 391.042 194.292C391.042 192.957 389.96 191.875 388.625 191.875 387.29 191.875 386.208 192.957 386.208 194.292L386.208 194.896 377.75 194.896 377.75 194.292C377.75 192.957 376.668 191.875 375.333 191.875 373.999 191.875 372.917 192.957 372.917 194.292L372.917 194.896 367.479 194.896 367.479 186.438 372.917 186.438 372.917 187.042C372.917 188.376 373.999 189.458 375.333 189.458 376.668 189.458 377.75 188.376 377.75 187.042L377.75 186.438 378.958 186.438 378.958 187.042C378.958 188.376 380.04 189.458 381.375 189.458 382.71 189.458 383.792 188.376 383.792 187.042L383.792 186.438 392.25 186.438 392.25 187.042C392.25 188.376 393.332 189.458 394.667 189.458 396.001 189.458 397.083 188.376 397.083 187.042L397.083 186.438 402.521 186.438 402.521 194.896 397.083 194.896 397.083 194.292C397.083 192.957 396.001 191.875 394.667 191.875ZM395.875 194.292 395.875 196.708C395.875 197.376 395.334 197.917 394.667 197.917 393.999 197.917 393.458 197.376 393.458 196.708L393.458 194.292C393.458 193.624 393.999 193.083 394.667 193.083 395.334 193.083 395.875 193.624 395.875 194.292ZM389.833 194.292 389.833 196.708C389.833 197.376 389.292 197.917 388.625 197.917 387.958 197.917 387.417 197.376 387.417 196.708L387.417 194.292C387.417 193.624 387.958 193.083 388.625 193.083 389.292 193.083 389.833 193.624 389.833 194.292ZM376.542 194.292 376.542 196.708C376.542 197.376 376.001 197.917 375.333 197.917 374.666 197.917 374.125 197.376 374.125 196.708L374.125 194.292C374.125 193.624 374.666 193.083 375.333 193.083 376.001 193.083 376.542 193.624 376.542 194.292ZM374.125 187.042 374.125 184.625C374.125 183.958 374.666 183.417 375.333 183.417 376.001 183.417 376.542 183.958 376.542 184.625L376.542 187.042C376.542 187.709 376.001 188.25 375.333 188.25 374.666 188.25 374.125 187.709 374.125 187.042ZM380.167 187.042 380.167 184.625C380.167 183.958 380.708 183.417 381.375 183.417 382.042 183.417 382.583 183.958 382.583 184.625L382.583 187.042C382.583 187.709 382.042 188.25 381.375 188.25 380.708 188.25 380.167 187.709 380.167 187.042ZM393.458 187.042 393.458 184.625C393.458 183.958 393.999 183.417 394.667 183.417 395.334 183.417 395.875 183.958 395.875 184.625L395.875 187.042C395.875 187.709 395.334 188.25 394.667 188.25 393.999 188.25 393.458 187.709 393.458 187.042ZM397.083 185.229 397.083 184.625C397.083 183.29 396.001 182.208 394.667 182.208 393.332 182.208 392.25 183.29 392.25 184.625L392.25 185.229 383.792 185.229 383.792 184.625C383.792 183.29 382.71 182.208 381.375 182.208 380.04 182.208 378.958 183.29 378.958 184.625L378.958 185.229 377.75 185.229 377.75 184.625C377.75 183.29 376.668 182.208 375.333 182.208 373.999 182.208 372.917 183.29 372.917 184.625L372.917 185.229 367.479 185.229 367.479 176.771 380.167 176.771 380.167 177.375C380.167 178.71 381.249 179.792 382.583 179.792 383.918 179.792 385 178.71 385 177.375L385 176.771 386.208 176.771 386.208 177.375C386.208 178.71 387.29 179.792 388.625 179.792 389.96 179.792 391.042 178.71 391.042 177.375L391.042 176.771 392.25 176.771 392.25 177.375C392.25 178.71 393.332 179.792 394.667 179.792 396.001 179.792 397.083 178.71 397.083 177.375L397.083 176.771 402.521 176.771 402.521 185.229ZM381.375 177.375 381.375 174.958C381.375 174.291 381.916 173.75 382.583 173.75 383.251 173.75 383.792 174.291 383.792 174.958L383.792 177.375C383.792 178.042 383.251 178.583 382.583 178.583 381.916 178.583 381.375 178.042 381.375 177.375ZM387.417 177.375 387.417 174.958C387.417 174.291 387.958 173.75 388.625 173.75 389.292 173.75 389.833 174.291 389.833 174.958L389.833 177.375C389.833 178.042 389.292 178.583 388.625 178.583 387.958 178.583 387.417 178.042 387.417 177.375ZM393.458 177.375 393.458 174.958C393.458 174.291 393.999 173.75 394.667 173.75 395.334 173.75 395.875 174.291 395.875 174.958L395.875 177.375C395.875 178.042 395.334 178.583 394.667 178.583 393.999 178.583 393.458 178.042 393.458 177.375ZM397.083 175.562 397.083 174.958C397.083 173.624 396.001 172.542 394.667 172.542 393.332 172.542 392.25 173.624 392.25 174.958L392.25 175.562 391.042 175.562 391.042 174.958C391.042 173.624 389.96 172.542 388.625 172.542 387.29 172.542 386.208 173.624 386.208 174.958L386.208 175.562 385 175.562 385 174.958C385 173.624 383.918 172.542 382.583 172.542 381.249 172.542 380.167 173.624 380.167 174.958L380.167 175.562 367.479 175.562 367.479 167.104 372.917 167.104 372.917 167.708C372.917 169.043 373.999 170.125 375.333 170.125 376.668 170.125 377.75 169.043 377.75 167.708L377.75 167.104 386.208 167.104 386.208 167.708C386.208 169.043 387.29 170.125 388.625 170.125 389.96 170.125 391.042 169.043 391.042 167.708L391.042 167.104 392.25 167.104 392.25 167.708C392.25 169.043 393.332 170.125 394.667 170.125 396.001 170.125 397.083 169.043 397.083 167.708L397.083 167.104 402.521 167.104 402.521 175.562ZM374.125 167.708 374.125 165.292C374.125 164.624 374.666 164.083 375.333 164.083 376.001 164.083 376.542 164.624 376.542 165.292L376.542 167.708C376.542 168.376 376.001 168.917 375.333 168.917 374.666 168.917 374.125 168.376 374.125 167.708ZM387.417 167.708 387.417 165.292C387.417 164.624 387.958 164.083 388.625 164.083 389.292 164.083 389.833 164.624 389.833 165.292L389.833 167.708C389.833 168.376 389.292 168.917 388.625 168.917 387.958 168.917 387.417 168.376 387.417 167.708ZM393.458 167.708 393.458 165.292C393.458 164.624 393.999 164.083 394.667 164.083 395.334 164.083 395.875 164.624 395.875 165.292L395.875 167.708C395.875 168.376 395.334 168.917 394.667 168.917 393.999 168.917 393.458 168.376 393.458 167.708ZM400.708 203.958 369.292 203.958C368.291 203.958 367.479 203.147 367.479 202.146L367.479 196.104 372.917 196.104 372.917 196.708C372.917 198.043 373.999 199.125 375.333 199.125 376.668 199.125 377.75 198.043 377.75 196.708L377.75 196.104 386.208 196.104 386.208 196.708C386.208 198.043 387.29 199.125 388.625 199.125 389.96 199.125 391.042 198.043 391.042 196.708L391.042 196.104 392.25 196.104 392.25 196.708C392.25 198.043 393.332 199.125 394.667 199.125 396.001 199.125 397.083 198.043 397.083 196.708L397.083 196.104 402.521 196.104 402.521 202.146C402.521 203.147 401.709 203.958 400.708 203.958Z" fill="#FFD966"/></g></svg>