<svg width="58" height="58" xmlns="http://www.w3.org/2000/svg" xmlns:xlink="http://www.w3.org/1999/xlink" overflow="hidden"><defs><clipPath id="clip0"><rect x="173" y="152" width="58" height="58"/></clipPath></defs><g clip-path="url(#clip0)" transform="translate(-173 -152)"><path d="M207.117 163.437C205.965 162.689 205.05 161.626 204.483 160.374L204.483 159.214C204.483 158.046 203.536 157.099 202.369 157.099 201.201 157.099 200.254 158.046 200.254 159.214L200.254 191.368C198.199 191.017 196.087 191.226 194.14 191.972 189.524 193.645 186.69 197.5 187.802 200.575 188.914 203.65 193.566 204.804 198.182 203.119 201.396 201.928 203.734 199.729 204.483 197.421L204.483 174.535C204.876 174.87 205.297 175.171 205.74 175.436 212.833 179.629 208.912 186.438 212.392 186.438 216.772 186.474 216.953 169.992 207.117 163.437Z" fill="#F2F2F2"/></g></svg>