<svg width="58" height="58" xmlns="http://www.w3.org/2000/svg" xmlns:xlink="http://www.w3.org/1999/xlink" overflow="hidden"><defs><clipPath id="clip0"><rect x="264" y="166" width="58" height="58"/></clipPath></defs><g clip-path="url(#clip0)" transform="translate(-264 -166)"><path d="M306.292 198.625 300.97 198.625C301.974 196.893 301.383 194.675 299.65 193.671 297.918 192.668 295.7 193.259 294.697 194.991 294.046 196.115 294.046 197.501 294.697 198.625L289.375 198.625 289.375 192.782C289.375 192.448 289.105 192.178 288.771 192.178 288.581 192.178 288.402 192.267 288.288 192.42 287.376 193.636 285.651 193.882 284.435 192.971 283.219 192.059 282.972 190.334 283.884 189.118 284.796 187.902 286.521 187.655 287.737 188.567 287.945 188.723 288.131 188.909 288.288 189.118 288.488 189.385 288.866 189.439 289.133 189.239 289.285 189.125 289.375 188.946 289.375 188.755L289.375 182.312C289.375 181.979 289.105 181.708 288.771 181.708L271.25 181.708C270.916 181.708 270.646 181.979 270.646 182.312L270.646 216.146C270.646 216.48 270.916 216.75 271.25 216.75L306.271 216.75C306.604 216.75 306.875 216.48 306.875 216.146L306.896 199.229C306.896 198.895 306.625 198.625 306.292 198.625ZM271.854 182.917 288.167 182.917 288.167 187.403C286.307 186.252 283.866 186.826 282.715 188.685 281.563 190.545 282.137 192.986 283.997 194.137 285.274 194.928 286.889 194.928 288.167 194.137L288.167 198.625 281.932 198.625C281.599 198.625 281.328 198.895 281.328 199.229 281.328 199.419 281.418 199.598 281.57 199.712 282.269 200.216 282.683 201.026 282.681 201.887 282.681 203.422 281.437 204.667 279.902 204.667 278.367 204.667 277.123 203.422 277.123 201.887 277.122 201.026 277.536 200.216 278.235 199.712 278.502 199.512 278.556 199.134 278.356 198.867 278.242 198.715 278.063 198.625 277.873 198.625L271.854 198.625ZM288.167 215.542 271.854 215.542 271.854 199.833 276.506 199.833C276.119 200.449 275.915 201.161 275.916 201.887 275.916 204.09 277.701 205.875 279.903 205.875 282.106 205.875 283.891 204.09 283.891 201.887 283.893 201.161 283.688 200.449 283.301 199.833L288.167 199.833 288.167 205.618C288.166 205.951 288.437 206.222 288.77 206.222 288.964 206.222 289.147 206.129 289.26 205.972 289.588 205.512 290.055 205.169 290.593 204.995 292.022 204.477 293.6 205.215 294.117 206.643 294.635 208.072 293.897 209.65 292.469 210.168 292.411 210.189 292.352 210.208 292.293 210.225L292.243 210.246C292.192 210.262 292.14 210.282 292.088 210.306L292.045 210.323C292.01 210.326 291.975 210.332 291.94 210.341 291.086 210.563 290.177 210.33 289.534 209.724 289.499 209.687 289.451 209.639 289.397 209.589 289.353 209.547 289.303 209.502 289.271 209.468 289.157 209.304 288.97 209.207 288.771 209.206 288.437 209.206 288.167 209.477 288.167 209.811L288.167 215.542ZM305.667 215.542 289.375 215.542 289.375 211.106C290.223 211.606 291.233 211.756 292.19 211.524 292.315 211.508 292.437 211.474 292.552 211.422L292.703 211.361C294.779 210.675 295.905 208.435 295.219 206.359 294.532 204.282 292.292 203.156 290.216 203.843 289.923 203.94 289.642 204.07 289.38 204.232L289.38 199.833 296.021 199.833C296.355 199.833 296.625 199.563 296.625 199.229 296.625 199.039 296.535 198.86 296.383 198.746 295.316 197.945 295.099 196.43 295.9 195.363 296.701 194.295 298.216 194.078 299.283 194.879 300.351 195.68 300.568 197.195 299.767 198.262 299.629 198.446 299.467 198.608 299.283 198.746 299.016 198.946 298.962 199.325 299.163 199.592 299.277 199.744 299.456 199.833 299.646 199.833L305.688 199.833Z" fill="#00B050"/><path d="M315.54 179.061C315.479 178.914 315.361 178.796 315.213 178.735L300.567 172.694C300.258 172.566 299.905 172.713 299.778 173.022 299.778 173.022 299.778 173.022 299.778 173.022L297.96 177.441C296.732 175.868 294.461 175.589 292.888 176.817 291.316 178.045 291.036 180.315 292.264 181.888 292.679 182.419 293.234 182.824 293.867 183.056 294.418 183.261 295.012 183.318 295.592 183.22L293.744 187.6C293.614 187.908 293.759 188.262 294.066 188.391 294.068 188.392 294.07 188.393 294.072 188.394L299.341 190.542C299.65 190.668 300.002 190.52 300.128 190.211 300.199 190.036 300.185 189.839 300.089 189.677 299.682 188.984 299.659 188.131 300.029 187.417 300.598 186.008 302.202 185.327 303.611 185.896 305.021 186.466 305.701 188.07 305.132 189.479 305.124 189.499 305.116 189.518 305.108 189.538 304.878 190.312 304.271 190.917 303.496 191.145 303.172 191.225 302.973 191.552 303.053 191.876 303.099 192.065 303.234 192.221 303.415 192.293L308.715 194.456C309.023 194.584 309.377 194.438 309.504 194.129 309.504 194.129 309.505 194.129 309.505 194.129L315.541 179.522C315.601 179.374 315.601 179.209 315.54 179.061ZM308.618 193.113 305.075 191.663C305.585 191.209 305.979 190.639 306.223 190.001 307.01 187.96 305.994 185.667 303.953 184.88 301.912 184.093 299.619 185.109 298.832 187.15 298.614 187.715 298.528 188.323 298.582 188.926L295.096 187.504 297.26 182.375C297.389 182.067 297.245 181.713 296.937 181.584 296.753 181.506 296.543 181.525 296.375 181.633 295.766 182.059 294.988 182.166 294.286 181.921 293.034 181.459 292.394 180.069 292.856 178.816 293.318 177.564 294.708 176.924 295.96 177.386 296.685 177.678 297.234 178.288 297.45 179.039 297.545 179.358 297.882 179.54 298.202 179.444 298.376 179.392 298.518 179.264 298.587 179.095L300.667 174.039 314.195 179.622Z" fill="#00B050"/></g></svg>