<svg width="57" height="57" xmlns="http://www.w3.org/2000/svg" xmlns:xlink="http://www.w3.org/1999/xlink" overflow="hidden"><defs><clipPath id="clip0"><rect x="428" y="111" width="57" height="57"/></clipPath></defs><g clip-path="url(#clip0)" transform="translate(-428 -111)"><path d="M445.128 146.819 455.002 150.909 454.093 153.103 444.219 149.013Z" fill="#F8CBAD"/><path d="M463.031 137.125C463.031 138.437 461.968 139.5 460.656 139.5 459.345 139.5 458.281 138.437 458.281 137.125 458.281 135.813 459.345 134.75 460.656 134.75 461.968 134.75 463.031 135.813 463.031 137.125Z" fill="#F8CBAD"/><path d="M463.031 137.125C463.031 138.437 461.968 139.5 460.656 139.5 459.345 139.5 458.281 138.437 458.281 137.125 458.281 135.813 459.345 134.75 460.656 134.75 461.968 134.75 463.031 135.813 463.031 137.125Z" fill="#F8CBAD"/><path d="M461.844 159.688C466.178 156.422 468.969 151.256 468.969 145.438 468.969 139.441 465.941 134.097 461.369 130.891L466.178 119.312 464.516 118.659 465.822 115.453 462.556 114.088 461.25 117.294 459.587 116.641 449.553 140.806 449.553 140.806C449.078 141.994 449.256 143.359 450.028 144.309L449.375 145.853 452.641 147.219 453.294 145.675C454.541 145.497 455.609 144.725 456.144 143.538L456.144 143.538 456.797 141.875 464.931 141.875C465.228 143.003 465.406 144.191 465.406 145.438 465.406 153.275 458.994 159.688 451.156 159.688L439.875 159.688 439.875 163.25 439.875 164.438 473.125 164.438 473.125 163.25 473.125 159.688 461.844 159.688ZM460.656 140.688C458.697 140.688 457.094 139.084 457.094 137.125 457.094 135.166 458.697 133.562 460.656 133.562 462.616 133.562 464.219 135.166 464.219 137.125 464.219 139.084 462.616 140.688 460.656 140.688Z" fill="#F8CBAD"/></g></svg>