<svg width="96" height="96" xmlns="http://www.w3.org/2000/svg" xmlns:xlink="http://www.w3.org/1999/xlink" overflow="hidden"><defs><clipPath id="clip0"><rect x="751" y="424" width="96" height="96"/></clipPath></defs><g clip-path="url(#clip0)" transform="translate(-751 -424)"><path d="M793.772 444.951 793.772 444.951C788.401 444.982 784.036 449.293 783.937 454.663L783.937 455.032C783.98 456.21 784.216 457.374 784.637 458.475 785.027 459.466 785.59 460.38 786.299 461.175 787.426 462.534 788.391 464.019 789.176 465.601L798.363 465.601C799.148 464.02 800.113 462.534 801.24 461.175 801.949 460.38 802.512 459.466 802.903 458.475 803.323 457.373 803.56 456.21 803.603 455.032L803.603 454.663C803.501 449.296 799.14 444.987 793.772 444.951ZM794.235 462.558 794.235 456.689 788.945 457.889 794.235 447.563 794.235 453.542 799.729 452.455Z"/><path d="M832.005 473.3 825.105 461.3 825.105 460.8C825.711 444.204 812.748 430.259 796.151 429.653 779.555 429.048 765.611 442.011 765.005 458.607 764.978 459.338 764.978 460.069 765.005 460.8 764.966 470.262 769.326 479.204 776.805 485L776.805 510.3 808.405 510.3 808.405 498.3 813.305 498.3C819.822 498.301 825.106 493.019 825.107 486.502 825.107 486.435 825.106 486.367 825.105 486.3L825.105 480.3 829.505 480.3C832.105 480 834.405 477 832.005 473.3ZM793.772 478.558C792.097 478.56 790.703 477.273 790.572 475.603L796.965 475.603C796.834 477.27 795.444 478.556 793.772 478.558ZM798.178 473.558 789.366 473.558C788.551 473.537 787.908 472.859 787.929 472.044 787.949 471.259 788.581 470.627 789.366 470.607L798.178 470.607C798.993 470.628 799.636 471.306 799.615 472.121 799.595 472.906 798.963 473.538 798.178 473.558ZM806.558 455.084C806.511 456.599 806.21 458.095 805.668 459.51 805.15 460.846 804.397 462.079 803.445 463.15 802.261 464.649 801.256 466.281 800.451 468.013 800.285 468.347 799.943 468.559 799.57 468.559L787.97 468.559C787.597 468.559 787.256 468.347 787.09 468.013 786.283 466.281 785.276 464.649 784.09 463.15 783.138 462.079 782.385 460.846 781.867 459.51 781.326 458.095 781.025 456.599 780.977 455.084L780.977 454.642C781.103 447.654 786.782 442.043 793.771 442L793.771 442C800.756 442.046 806.431 447.655 806.558 454.639Z"/></g></svg>